name Walk6.mot
datacolumns 19
datarows 10
range 1.19300000 1.20200000
endheader

                time	   L_ground_force_vx	   L_ground_force_vy	   L_ground_force_vz	   L_ground_force_px	   L_ground_force_py	   L_ground_force_pz	   R_ground_force_vx	   R_ground_force_vy	   R_ground_force_vz	   R_ground_force_px	   R_ground_force_py	   R_ground_force_pz	   L_ground_torque_x	   L_ground_torque_y	   L_ground_torque_z	   R_ground_torque_x	   R_ground_torque_y	   R_ground_torque_z	
          1.19300000	         27.89127660	        488.92618418	         23.66424644	         -0.38376635	          0.00000000	          0.01417741	         -0.00262667	          0.56960180	          0.05247553	          0.00017125	          0.00000000	          0.00014978	          0.00000000	         -1.08325887	          0.00000000	          0.00000000	          0.00932328	          0.00000000	
          1.19400000	         28.52302428	        490.49541729	         23.68537104	         -0.38371945	          0.00000000	          0.01423265	         -0.00501676	          0.58187161	          0.05318007	          0.00017201	          0.00000000	          0.00015051	          0.00000000	         -1.10237527	          0.00000000	          0.00000000	          0.00978861	          0.00000000	
          1.19500000	         29.15662753	        492.07327221	         23.70208868	         -0.38367122	          0.00000000	          0.01428916	         -0.00760824	          0.59287852	          0.05373044	          0.00017212	          0.00000000	          0.00015070	          0.00000000	         -1.12164592	          0.00000000	          0.00000000	          0.01025676	          0.00000000	
          1.19600000	         29.79217006	        493.65928851	         23.71434282	         -0.38362165	          0.00000000	          0.01434691	         -0.01040910	          0.60245971	          0.05411006	          0.00017154	          0.00000000	          0.00015027	          0.00000000	         -1.14106984	          0.00000000	          0.00000000	          0.01072605	          0.00000000	
          1.19700000	         30.42973605	        495.25300051	         23.72207717	         -0.38357070	          0.00000000	          0.01440589	         -0.01342724	          0.61044312	          0.05430148	          0.00017019	          0.00000000	          0.00014919	          0.00000000	         -1.16064495	          0.00000000	          0.00000000	          0.01119465	          0.00000000	
          1.19800000	         31.06940766	        496.85393555	         23.72523634	         -0.38351837	          0.00000000	          0.01446607	         -0.01667040	          0.61664732	          0.05428644	          0.00016802	          0.00000000	          0.00014739	          0.00000000	         -1.18036765	          0.00000000	          0.00000000	          0.01166056	          0.00000000	
          1.19900000	         31.71126275	        498.46161197	         23.72376749	         -0.38346461	          0.00000000	          0.01452741	         -0.02014607	          0.62088135	          0.05404579	          0.00016495	          0.00000000	          0.00014481	          0.00000000	         -1.20023287	          0.00000000	          0.00000000	          0.01212161	          0.00000000	
          1.20000000	         32.35537326	        500.07553676	         23.71762218	         -0.38340940	          0.00000000	          0.01458990	         -0.02386153	          0.62294464	          0.05355958	          0.00016091	          0.00000000	          0.00014140	          0.00000000	         -1.22023440	          0.00000000	          0.00000000	          0.01257544	          0.00000000	
          1.20100000	         33.00180456	        501.69520366	         23.70675804	         -0.38335271	          0.00000000	          0.01465348	         -0.02782369	          0.62262696	          0.05280699	          0.00015584	          0.00000000	          0.00013709	          0.00000000	         -1.24036557	          0.00000000	          0.00000000	          0.01301951	          0.00000000	
          1.20200000	         33.65061612	        503.32009161	         23.69113945	         -0.38329452	          0.00000000	          0.01471813	         -0.03203913	          0.61970837	          0.05176638	          0.00014965	          0.00000000	          0.00013181	          0.00000000	         -1.26061996	          0.00000000	          0.00000000	          0.01345107	          0.00000000	
